<svg width="13" height="14" viewBox="0 0 13 14" fill="none" xmlns="http://www.w3.org/2000/svg">
<path d="M10.7142 9.63599C9.82575 9.84911 8.89826 9.83878 8.01479 9.60594C7.13131 9.37309 6.31944 8.925 5.65185 8.30177C4.98427 7.67855 4.48183 6.89967 4.18952 6.03486C3.8972 5.17005 3.82415 4.24631 3.97689 3.34637C3.95366 3.36879 3.92913 3.38982 3.90344 3.40936C3.72144 3.54767 3.49394 3.59897 3.03893 3.70157L2.62618 3.79508C1.02716 4.15676 0.227655 4.33728 0.0372031 4.94832C-0.152599 5.55871 0.392107 6.19573 1.48217 7.4691L1.76427 7.79832C2.07367 8.16001 2.22902 8.34118 2.29857 8.56456C2.36812 8.78858 2.34472 9.03014 2.29792 9.51261L2.25502 9.95222C2.09057 11.6516 2.00802 12.5009 2.50593 12.8782C3.00383 13.2561 3.75264 12.912 5.24895 12.223L5.637 12.0451C6.06211 11.849 6.27466 11.7516 6.50021 11.7516C6.72576 11.7516 6.93832 11.849 7.36407 12.0451L7.75082 12.223C9.24779 12.9113 9.99659 13.2555 10.4938 12.8788C10.9924 12.5009 10.9099 11.6516 10.7454 9.95222L10.7142 9.63599Z" fill="#0057FF"/>
<path opacity="0.5" d="M4.64946 2.25934L4.43626 2.64116C4.20225 3.06064 4.08525 3.27038 3.90325 3.40869C3.92925 3.38921 3.9533 3.36843 3.9767 3.34571C3.82392 4.24571 3.89697 5.16952 4.18932 6.0344C4.48166 6.89928 4.98417 7.67821 5.65183 8.30145C6.3195 8.92469 7.13147 9.37277 8.01504 9.60556C8.8986 9.83834 9.82617 9.84857 10.7147 9.63532L10.7017 9.51194C10.6555 9.02948 10.6321 8.78792 10.7017 8.56389C10.7712 8.34051 10.9259 8.15935 11.236 7.79766L11.5181 7.46844C12.6081 6.19571 13.1528 5.5587 12.9624 4.94766C12.7726 4.33662 11.9731 4.15545 10.3741 3.79441L9.96066 3.7009C9.5063 3.5983 9.2788 3.54701 9.09615 3.40869C8.91415 3.27038 8.79715 3.06064 8.56314 2.64116L8.35059 2.25934C7.52703 0.784019 7.11558 0.0463562 6.50002 0.0463562C5.88447 0.0463562 5.47301 0.784019 4.64946 2.25934Z" fill="#0057FF"/>
</svg>
